<?xml version="1.0" encoding="UTF-8"?>
<svg xmlns="http://www.w3.org/2000/svg" width="1040" height="1076" viewBox="0 0 1040 1076" role="img" aria-label="The Music Makeover logo">
  <title>The Music Makeover Logo</title>
  <g fill="#B87333" fill-rule="evenodd">
    <path d="M 504 1000 L 503 1003 L 508 1005 L 508 1030 L 504 1032 L 507 1035 L 507 1039 L 503 1040 L 502 1043 L 534 1044 L 536 1031 L 531 1031 L 531 1037 L 529 1039 L 525 1039 L 524 1037 L 521 1037 L 520 1039 L 516 1038 L 516 1005 L 520 1004 L 521 1001 Z M 458 998 L 458 1001 L 462 1003 L 461 1035 L 459 1038 L 456 1038 L 455 1041 L 466 1042 L 467 1044 L 469 1042 L 487 1043 L 489 1035 L 488 1030 L 482 1038 L 479 1038 L 478 1036 L 476 1038 L 471 1038 L 469 1036 L 471 1004 L 475 1003 L 476 1000 Z M 563 997 L 562 1000 L 557 1002 L 550 1009 L 547 1016 L 548 1030 L 546 1031 L 558 1042 L 564 1044 L 575 1043 L 584 1038 L 585 1030 L 582 1030 L 580 1035 L 576 1038 L 566 1036 L 562 1037 L 557 1030 L 556 1014 L 558 1009 L 565 1003 L 572 1003 L 578 1007 L 580 1012 L 583 1012 L 583 1001 L 581 999 L 575 1000 L 572 997 Z M 539 925 L 524 925 L 516 931 L 514 936 L 516 944 L 522 949 L 530 952 L 534 956 L 535 961 L 532 965 L 526 966 L 525 964 L 527 963 L 520 960 L 517 955 L 514 955 L 515 969 L 520 968 L 530 970 L 540 964 L 542 960 L 542 953 L 540 949 L 522 937 L 522 932 L 525 929 L 531 929 L 532 932 L 540 938 Z M 583 922 L 553 925 L 553 928 L 558 929 L 560 964 L 555 966 L 555 968 L 575 966 L 575 964 L 571 964 L 569 962 L 568 948 L 576 947 L 578 952 L 581 952 L 581 937 L 577 937 L 577 940 L 574 943 L 568 943 L 567 934 L 569 933 L 570 927 L 578 927 L 582 934 L 585 934 Z M 461 921 L 460 924 L 465 926 L 462 960 L 456 964 L 467 966 L 471 965 L 471 961 L 467 961 L 469 937 L 471 936 L 491 968 L 495 968 L 498 933 L 500 929 L 505 927 L 502 925 L 490 924 L 490 927 L 494 929 L 493 950 L 491 951 L 478 932 L 478 927 L 475 927 L 473 921 Z M 616 915 L 605 919 L 593 934 L 595 935 L 596 951 L 608 960 L 622 961 L 629 958 L 636 950 L 639 950 L 637 948 L 639 936 L 635 925 L 628 918 Z M 612 920 L 618 920 L 620 924 L 622 923 L 628 933 L 630 942 L 629 950 L 622 957 L 613 956 L 609 952 L 605 942 L 606 925 Z M 431 915 L 409 949 L 402 951 L 402 953 L 415 956 L 416 954 L 413 952 L 415 946 L 418 942 L 424 942 L 430 944 L 432 948 L 432 955 L 428 956 L 427 959 L 445 962 L 441 956 L 443 951 L 440 949 L 437 918 L 435 915 Z M 427 928 L 430 930 L 430 938 L 429 939 L 425 939 L 422 937 L 422 935 Z M 672 903 L 655 903 L 654 906 L 652 904 L 649 908 L 642 910 L 644 913 L 647 912 L 651 919 L 658 942 L 658 946 L 654 949 L 655 951 L 672 946 L 671 943 L 666 942 L 668 939 L 668 934 L 672 934 L 682 942 L 685 941 L 686 943 L 684 944 L 686 945 L 688 941 L 694 937 L 692 934 L 689 936 L 684 934 L 674 925 L 678 918 L 678 909 Z M 661 907 L 665 907 L 670 913 L 670 920 L 664 925 L 662 925 L 660 923 L 656 911 L 658 908 Z M 368 896 L 367 899 L 371 903 L 369 908 L 366 909 L 368 911 L 361 931 L 358 935 L 354 934 L 353 937 L 360 939 L 363 943 L 371 943 L 372 941 L 368 938 L 368 934 L 371 926 L 375 924 L 380 946 L 392 950 L 393 948 L 388 944 L 384 927 L 390 926 L 396 921 L 397 912 L 395 906 L 392 903 Z M 380 905 L 383 905 L 388 909 L 387 918 L 383 922 L 380 922 L 374 919 L 378 907 Z M 324 874 L 320 877 L 321 880 L 319 885 L 329 881 L 330 884 L 333 883 L 335 886 L 322 913 L 320 915 L 315 915 L 314 918 L 320 921 L 323 925 L 327 924 L 331 926 L 332 924 L 328 919 L 342 891 L 346 890 L 349 892 L 352 903 L 354 902 L 358 891 L 350 885 L 348 886 Z M 730 871 L 719 878 L 721 894 L 720 904 L 715 904 L 706 895 L 706 893 L 704 894 L 699 889 L 696 889 L 686 895 L 686 897 L 692 897 L 700 912 L 706 926 L 703 933 L 715 928 L 716 925 L 710 924 L 711 921 L 705 914 L 701 906 L 702 904 L 723 922 L 726 922 L 725 891 L 734 905 L 734 911 L 736 912 L 734 917 L 737 917 L 750 909 L 749 907 L 745 908 L 732 886 L 729 879 L 732 874 Z M 287 867 L 280 867 L 275 872 L 274 878 L 276 882 L 280 885 L 280 887 L 281 885 L 288 884 L 292 879 L 292 872 Z M 767 866 L 761 872 L 761 879 L 767 884 L 772 884 L 777 880 L 779 876 L 779 873 L 775 867 Z M 814 809 L 812 809 L 812 811 L 803 818 L 800 818 L 801 820 L 795 830 L 795 842 L 800 851 L 807 856 L 804 859 L 805 860 L 807 857 L 821 858 L 828 855 L 835 849 L 843 838 L 832 828 L 832 821 L 827 823 L 826 826 L 824 825 L 823 829 L 818 834 L 820 836 L 826 834 L 833 841 L 832 846 L 826 851 L 817 851 L 811 845 L 809 846 L 802 837 L 801 829 L 807 819 L 811 817 L 821 817 L 821 815 Z M 232 809 L 232 817 L 226 823 L 224 822 L 224 825 L 210 839 L 205 837 L 204 840 L 210 846 L 209 848 L 211 847 L 221 857 L 234 861 L 246 857 L 252 851 L 255 845 L 255 829 L 234 809 Z M 241 822 L 245 826 L 244 828 L 247 828 L 249 833 L 246 844 L 234 854 L 232 852 L 222 852 L 217 845 L 226 836 L 228 836 L 228 833 L 230 834 L 229 832 L 239 822 Z M 206 776 L 204 777 L 205 782 L 202 785 L 200 784 L 198 788 L 181 803 L 173 803 L 182 815 L 181 818 L 183 817 L 194 830 L 202 824 L 203 821 L 200 820 L 194 822 L 185 813 L 185 811 L 209 790 L 214 792 L 217 790 Z M 844 775 L 834 782 L 823 798 L 826 799 L 829 797 L 833 800 L 833 803 L 835 802 L 856 819 L 854 824 L 857 825 L 867 811 L 865 809 L 860 811 L 850 802 L 853 800 L 873 803 L 880 792 L 877 791 L 875 794 L 857 793 L 857 785 L 855 780 L 849 775 Z M 839 783 L 844 783 L 848 791 L 849 790 L 851 791 L 850 796 L 847 800 L 835 788 Z M 188 751 L 185 752 L 186 757 L 183 760 L 181 759 L 179 760 L 180 761 L 179 763 L 177 762 L 177 764 L 161 777 L 156 775 L 153 776 L 163 791 L 166 790 L 165 788 L 165 784 L 170 781 L 191 764 L 194 766 L 197 765 L 196 762 Z M 873 727 L 873 729 L 861 739 L 858 746 L 858 757 L 861 764 L 868 771 L 874 774 L 887 774 L 900 766 L 902 762 L 901 742 L 888 729 L 875 729 Z M 863 744 L 866 743 L 865 741 L 869 737 L 878 737 L 883 739 L 896 750 L 896 762 L 890 767 L 881 766 L 877 762 L 865 756 L 862 750 Z M 346 774 L 347 783 L 451 782 L 450 773 L 428 771 L 414 765 L 407 759 L 400 741 L 399 725 L 395 725 L 392 749 L 388 757 L 379 766 L 364 772 L 359 770 L 357 773 Z M 420 771 L 422 770 L 426 772 L 429 772 L 430 774 L 426 775 L 421 773 Z M 162 701 L 158 702 L 159 706 L 136 719 L 129 727 L 128 733 L 133 746 L 142 752 L 150 752 L 173 740 L 177 740 L 179 743 L 182 742 L 176 728 L 172 729 L 173 734 L 149 748 L 141 747 L 135 740 L 135 732 L 140 727 L 162 715 L 167 719 L 169 718 Z M 533 662 L 511 709 L 529 750 L 528 754 L 531 755 L 540 774 L 563 722 L 540 673 Z M 539 678 L 541 679 L 544 685 L 543 688 L 541 687 L 541 685 L 538 680 Z M 896 655 L 893 670 L 901 668 L 917 681 L 914 683 L 893 683 L 892 678 L 889 678 L 885 695 L 890 692 L 894 692 L 910 705 L 886 704 L 883 699 L 881 700 L 876 715 L 878 717 L 882 713 L 894 713 L 897 716 L 900 714 L 922 715 L 924 709 L 908 696 L 908 693 L 930 692 L 932 686 L 912 671 L 909 666 L 907 667 L 906 664 L 903 664 L 900 661 L 900 656 Z M 144 652 L 142 651 L 140 653 L 140 657 L 135 660 L 108 670 L 103 667 L 101 669 L 108 690 L 114 698 L 118 700 L 125 700 L 131 695 L 134 687 L 143 690 L 150 685 L 151 672 Z M 125 673 L 128 679 L 128 685 L 124 686 L 121 691 L 114 690 L 111 687 L 109 680 L 111 678 Z M 144 667 L 146 671 L 145 678 L 141 681 L 135 681 L 131 677 L 130 672 L 138 668 Z M 79 497 L 79 555 L 95 555 L 95 552 L 89 550 L 85 545 L 85 533 L 93 533 L 94 535 L 99 535 L 100 533 L 137 533 L 140 541 L 144 540 L 144 515 L 142 513 L 139 514 L 139 519 L 137 521 L 85 522 L 85 509 L 88 505 L 95 502 L 95 499 Z M 958 456 L 955 455 L 953 457 L 952 464 L 900 467 L 898 460 L 894 460 L 896 487 L 899 486 L 901 479 L 923 477 L 925 479 L 923 486 L 911 493 L 899 503 L 896 510 L 897 526 L 900 526 L 903 514 L 926 495 L 934 505 L 940 508 L 950 507 L 956 502 L 960 492 Z M 929 478 L 930 477 L 939 477 L 940 476 L 954 476 L 955 477 L 954 489 L 947 495 L 937 495 L 931 490 L 929 486 Z M 913 468 L 914 467 L 928 467 L 929 469 L 928 470 L 914 470 Z M 929 467 L 930 466 L 939 466 L 940 468 L 939 469 L 930 469 Z M 93 410 L 88 435 L 90 436 L 94 429 L 115 432 L 116 439 L 112 461 L 108 463 L 90 460 L 88 458 L 88 453 L 85 452 L 80 477 L 84 478 L 85 474 L 88 471 L 131 478 L 139 480 L 140 488 L 143 489 L 145 485 L 148 463 L 144 462 L 141 468 L 117 464 L 116 461 L 120 439 L 122 434 L 145 438 L 147 440 L 147 447 L 150 447 L 156 422 L 153 420 L 151 425 L 146 427 L 98 418 L 96 416 L 96 411 Z M 940 379 L 938 379 L 937 386 L 935 388 L 893 399 L 885 400 L 881 394 L 878 395 L 891 443 L 906 442 L 907 438 L 896 435 L 893 432 L 888 415 L 889 411 L 912 406 L 915 418 L 908 424 L 908 427 L 927 423 L 928 419 L 920 417 L 917 405 L 919 403 L 940 398 L 944 410 L 944 419 L 937 428 L 937 431 L 952 425 Z M 909 397 L 906 401 L 902 400 L 898 401 L 896 403 L 891 403 L 890 402 L 891 400 L 906 396 Z M 937 389 L 933 393 L 928 393 L 925 395 L 922 394 L 925 391 L 931 390 L 935 388 Z M 117 342 L 100 386 L 103 387 L 107 381 L 124 386 L 155 399 L 157 401 L 156 407 L 159 409 L 179 362 L 163 354 L 162 357 L 169 364 L 169 372 L 163 387 L 160 388 L 138 379 L 142 368 L 145 366 L 150 367 L 152 365 L 149 362 L 133 357 L 132 360 L 137 364 L 133 377 L 112 369 L 117 354 L 120 351 L 130 349 L 131 347 Z M 142 383 L 144 382 L 149 385 L 160 388 L 163 391 L 158 393 L 155 390 L 144 386 Z M 122 376 L 124 375 L 130 377 L 133 380 L 130 381 L 123 378 Z M 109 371 L 112 370 L 119 373 L 120 375 L 118 376 L 114 374 L 111 374 Z M 904 297 L 901 298 L 902 307 L 859 354 L 860 357 L 912 351 L 924 351 L 929 359 L 933 357 L 923 335 L 921 336 L 921 344 L 917 346 L 885 350 L 878 349 L 881 344 L 908 317 L 913 322 L 916 320 Z M 907 305 L 909 309 L 903 312 L 902 310 L 906 308 L 905 306 Z M 275 280 L 275 290 L 294 292 L 303 296 L 312 305 L 317 316 L 319 328 L 318 613 L 315 644 L 309 658 L 300 667 L 287 672 L 273 673 L 272 682 L 383 683 L 385 686 L 387 683 L 394 683 L 394 672 L 377 672 L 357 665 L 348 656 L 343 646 L 340 632 L 339 413 L 341 341 L 344 344 L 499 693 L 501 693 L 657 340 L 659 339 L 660 497 L 659 598 L 657 599 L 659 600 L 658 640 L 655 652 L 646 664 L 635 670 L 611 673 L 611 683 L 659 684 L 659 745 L 657 755 L 649 766 L 633 772 L 614 773 L 614 782 L 701 783 L 703 786 L 705 786 L 702 785 L 703 783 L 749 783 L 749 773 L 728 770 L 720 766 L 715 761 L 711 753 L 709 737 L 709 684 L 762 682 L 762 673 L 747 672 L 731 666 L 723 658 L 719 650 L 716 634 L 716 330 L 718 317 L 724 304 L 736 294 L 746 291 L 762 290 L 762 282 L 759 280 L 667 280 L 665 282 L 519 610 L 516 612 L 369 282 L 367 280 Z M 723 770 L 725 769 L 728 771 L 734 772 L 735 774 L 731 775 L 724 772 Z M 745 674 L 746 673 L 759 674 L 760 676 L 759 677 L 752 677 L 751 676 L 746 676 Z M 734 671 L 737 670 L 741 672 L 744 672 L 745 674 L 744 675 L 735 674 Z M 353 666 L 355 665 L 359 668 L 365 670 L 366 672 L 365 673 L 360 672 L 355 669 Z M 414 390 L 416 391 L 418 395 L 417 398 L 413 394 Z M 670 376 L 671 375 L 675 375 L 678 376 L 679 378 L 675 379 L 671 378 Z M 394 346 L 396 347 L 400 355 L 399 358 L 397 357 L 396 354 L 392 353 L 393 351 L 395 351 L 393 349 Z M 373 301 L 375 301 L 378 306 L 378 308 L 384 320 L 383 322 L 381 322 L 380 318 L 377 316 L 378 314 L 375 312 L 376 309 L 372 307 L 374 305 L 372 303 Z M 705 290 L 707 288 L 710 288 L 712 290 L 715 290 L 716 292 L 715 293 L 711 293 L 708 291 L 706 292 Z M 739 285 L 740 282 L 744 281 L 747 282 L 759 281 L 760 282 L 759 284 L 756 284 L 754 286 L 751 284 L 749 286 L 745 286 L 744 285 L 740 286 Z M 668 285 L 668 283 L 670 281 L 684 281 L 685 282 L 686 281 L 697 281 L 698 282 L 699 281 L 706 281 L 707 282 L 716 282 L 717 281 L 723 281 L 724 282 L 726 281 L 727 282 L 736 282 L 737 283 L 735 286 L 730 285 L 728 287 L 727 285 L 725 285 L 727 287 L 726 289 L 722 286 L 719 289 L 714 289 L 710 285 L 708 286 L 700 285 L 702 286 L 701 288 L 697 288 L 694 285 L 693 288 L 690 287 L 683 288 L 681 285 L 679 287 L 676 285 L 675 286 L 669 286 Z M 355 283 L 356 282 L 364 282 L 366 281 L 374 299 L 373 300 L 370 298 L 368 299 L 367 295 L 369 294 L 366 291 L 366 288 L 363 286 L 358 286 Z M 298 283 L 303 281 L 311 281 L 312 282 L 314 281 L 322 282 L 323 281 L 347 281 L 349 284 L 348 285 L 336 284 L 338 286 L 337 287 L 335 286 L 334 288 L 330 286 L 327 286 L 325 284 L 326 288 L 324 289 L 321 285 L 310 285 L 308 284 L 306 286 L 299 285 Z M 278 282 L 279 281 L 282 282 L 283 281 L 289 281 L 291 284 L 290 285 L 288 284 L 280 285 Z M 847 240 L 833 245 L 822 255 L 817 264 L 815 276 L 820 292 L 829 302 L 842 308 L 856 308 L 868 303 L 878 294 L 884 281 L 884 268 L 874 248 L 856 240 Z M 863 296 L 862 299 L 859 299 L 852 303 L 849 302 L 850 300 L 852 300 L 860 295 Z M 866 250 L 873 256 L 877 265 L 875 277 L 869 286 L 857 296 L 845 301 L 835 300 L 830 297 L 823 285 L 824 275 L 830 265 L 840 255 L 849 250 Z M 849 243 L 846 246 L 842 247 L 840 246 L 838 249 L 835 249 L 833 252 L 830 251 L 834 246 L 843 242 L 848 242 Z M 200 218 L 188 232 L 211 275 L 202 275 L 163 263 L 151 278 L 154 280 L 157 277 L 161 277 L 199 310 L 199 320 L 201 320 L 211 307 L 211 302 L 205 306 L 202 305 L 172 279 L 175 278 L 221 292 L 223 291 L 224 287 L 201 244 L 203 243 L 235 266 L 235 275 L 252 258 L 250 255 L 243 258 L 200 226 L 202 221 Z M 176 270 L 180 269 L 184 271 L 206 276 L 210 278 L 214 278 L 215 280 L 214 281 L 209 281 L 202 278 L 196 278 L 191 275 L 186 276 L 182 273 L 178 273 Z M 163 266 L 166 265 L 170 267 L 173 267 L 174 269 L 173 270 L 166 269 Z M 230 253 L 233 252 L 242 258 L 243 260 L 239 261 L 235 257 L 233 257 Z M 196 227 L 198 226 L 202 230 L 226 247 L 228 250 L 226 251 L 210 239 L 201 234 Z M 798 176 L 796 179 L 799 182 L 799 186 L 766 226 L 761 224 L 758 225 L 760 229 L 794 258 L 806 248 L 806 246 L 803 245 L 797 248 L 789 247 L 774 234 L 788 216 L 791 215 L 800 223 L 800 227 L 797 232 L 800 234 L 814 217 L 811 215 L 804 219 L 797 214 L 794 209 L 809 192 L 823 204 L 823 219 L 834 207 Z M 799 190 L 800 193 L 796 198 L 794 198 L 793 196 Z M 800 188 L 803 182 L 808 186 L 807 188 L 803 188 L 802 189 Z M 272 157 L 255 170 L 256 172 L 260 170 L 267 171 L 289 200 L 292 207 L 292 215 L 286 224 L 279 228 L 271 228 L 267 226 L 238 193 L 238 189 L 241 186 L 240 183 L 220 198 L 221 202 L 229 199 L 253 228 L 261 235 L 267 237 L 274 237 L 286 231 L 294 223 L 298 213 L 296 202 L 270 166 L 273 160 Z M 261 224 L 263 223 L 268 228 L 275 229 L 276 231 L 275 232 L 268 231 L 264 229 Z M 243 201 L 246 203 L 255 214 L 254 216 L 249 214 L 249 211 L 244 207 L 244 205 L 242 203 Z M 233 192 L 236 191 L 243 201 L 241 202 L 235 197 Z M 730 132 L 729 135 L 732 138 L 732 142 L 706 184 L 704 186 L 697 185 L 695 188 L 716 200 L 718 197 L 714 194 L 714 191 L 725 173 L 728 171 L 730 173 L 734 204 L 729 204 L 728 208 L 749 220 L 751 217 L 745 209 L 740 170 L 762 162 L 774 163 L 775 160 L 760 150 L 758 152 L 760 155 L 759 158 L 732 167 L 731 164 L 743 146 L 750 147 L 751 145 Z M 732 168 L 736 167 L 738 168 L 738 177 L 737 178 L 734 177 L 735 172 L 731 170 Z M 735 138 L 737 137 L 742 140 L 743 142 L 738 144 L 736 142 Z M 330 124 L 310 132 L 304 137 L 300 144 L 300 155 L 307 164 L 314 167 L 342 167 L 349 175 L 347 185 L 340 190 L 328 190 L 319 183 L 315 185 L 325 201 L 332 196 L 342 194 L 347 191 L 354 184 L 357 177 L 355 165 L 350 159 L 342 155 L 319 156 L 314 155 L 309 151 L 307 146 L 308 141 L 316 134 L 323 133 L 329 135 L 334 140 L 338 139 Z M 304 148 L 306 147 L 308 151 L 312 155 L 318 157 L 325 157 L 326 156 L 328 157 L 329 156 L 344 157 L 348 159 L 353 164 L 355 171 L 353 172 L 350 167 L 350 165 L 345 162 L 343 162 L 340 159 L 336 159 L 334 161 L 330 159 L 328 160 L 315 160 L 312 159 L 307 155 L 304 150 Z M 675 109 L 632 158 L 625 159 L 625 161 L 643 168 L 644 165 L 640 161 L 642 155 L 649 146 L 658 148 L 670 154 L 670 169 L 668 171 L 663 171 L 662 174 L 685 183 L 686 179 L 681 176 L 679 111 Z M 667 125 L 669 126 L 669 141 L 670 142 L 669 145 L 670 147 L 669 148 L 654 142 L 654 140 Z M 383 103 L 358 111 L 359 115 L 365 113 L 368 116 L 385 163 L 385 168 L 379 171 L 380 175 L 405 166 L 404 162 L 397 163 L 395 161 L 378 110 L 381 107 L 384 107 Z M 391 160 L 393 159 L 399 165 L 395 166 L 392 163 Z M 384 136 L 386 137 L 387 142 L 389 145 L 388 147 L 385 145 L 383 139 Z M 368 110 L 370 108 L 375 107 L 377 112 L 376 113 L 374 112 L 371 113 Z M 465 85 L 461 87 L 445 86 L 435 89 L 423 97 L 416 109 L 414 122 L 417 137 L 421 144 L 433 154 L 440 156 L 453 156 L 464 153 L 477 146 L 476 131 L 472 130 L 470 140 L 464 147 L 455 151 L 444 150 L 433 141 L 427 126 L 426 111 L 431 99 L 438 93 L 451 91 L 458 94 L 467 104 L 469 103 L 469 99 Z M 425 138 L 429 137 L 432 142 L 431 143 L 428 142 Z M 541 81 L 540 84 L 547 87 L 544 116 L 539 141 L 535 144 L 531 144 L 530 147 L 551 149 L 552 147 L 545 143 L 549 108 L 552 101 L 554 102 L 567 153 L 571 151 L 583 127 L 597 105 L 595 146 L 593 150 L 587 150 L 586 153 L 612 157 L 612 154 L 605 150 L 610 96 L 613 93 L 618 93 L 618 90 L 600 88 L 576 132 L 574 133 L 560 84 Z M 602 112 L 606 114 L 605 116 L 606 120 L 604 122 L 602 121 L 602 117 L 601 116 Z M 600 90 L 601 89 L 608 90 L 609 92 L 606 95 L 604 95 L 601 93 Z M 549 84 L 550 83 L 558 84 L 560 90 L 558 91 L 556 88 L 550 86 Z M 421 41 L 372 54 L 317 75 L 278 95 L 236 122 L 201 150 L 161 189 L 131 225 L 105 263 L 90 289 L 64 345 L 48 393 L 37 443 L 32 486 L 31 545 L 35 593 L 42 634 L 49 663 L 63 705 L 76 736 L 98 778 L 118 810 L 146 847 L 146 851 L 148 850 L 173 878 L 207 910 L 206 912 L 208 911 L 232 931 L 273 959 L 320 984 L 348 996 L 383 1008 L 430 1018 L 431 1008 L 428 1008 L 425 1005 L 417 1006 L 389 999 L 336 980 L 315 970 L 313 967 L 311 968 L 290 957 L 255 935 L 232 918 L 203 893 L 204 891 L 202 892 L 159 847 L 126 804 L 99 760 L 73 704 L 60 666 L 49 620 L 42 566 L 41 502 L 44 463 L 57 397 L 72 352 L 100 291 L 127 247 L 160 205 L 201 163 L 240 131 L 278 106 L 327 81 L 372 64 L 436 48 L 492 41 L 544 41 L 586 45 L 638 55 L 684 69 L 719 83 L 760 104 L 811 138 L 839 161 L 886 209 L 906 234 L 925 262 L 940 287 L 958 324 L 971 356 L 985 402 L 996 464 L 998 488 L 998 554 L 992 607 L 986 639 L 975 680 L 952 740 L 935 774 L 920 799 L 900 828 L 877 857 L 838 897 L 817 915 L 789 936 L 747 962 L 723 972 L 717 977 L 710 978 L 701 984 L 694 984 L 692 987 L 679 992 L 674 991 L 671 995 L 669 993 L 667 996 L 650 1001 L 608 1009 L 609 1019 L 635 1015 L 681 1002 L 731 981 L 780 954 L 814 930 L 850 899 L 889 858 L 920 817 L 943 780 L 963 740 L 979 700 L 995 644 L 1002 606 L 1008 549 L 1008 493 L 1004 450 L 997 411 L 989 380 L 972 332 L 949 284 L 924 243 L 890 199 L 852 160 L 823 135 L 790 111 L 749 87 L 706 67 L 667 53 L 605 38 L 555 32 L 503 31 L 466 34 Z M 313 972 L 315 971 L 323 975 L 324 977 L 322 978 L 314 974 Z M 295 963 L 297 962 L 303 965 L 304 967 L 302 968 L 296 965 Z M 920 242 L 923 244 L 928 252 L 927 254 L 924 252 L 923 249 L 919 248 L 920 246 L 919 243 Z M 892 211 L 896 209 L 899 213 L 898 214 L 894 214 Z M 875 188 L 877 187 L 882 192 L 883 195 L 881 196 L 879 193 L 876 193 L 874 191 Z M 854 169 L 857 167 L 866 177 L 864 178 L 862 176 L 860 176 L 858 172 L 856 173 Z M 837 152 L 840 151 L 848 160 L 847 161 L 842 160 L 841 159 L 842 157 L 840 155 L 838 155 Z M 824 140 L 826 139 L 836 149 L 833 150 L 831 147 L 826 146 Z M 328 74 L 327 76 L 319 79 L 318 81 L 316 80 L 317 77 L 326 73 Z M 350 65 L 349 68 L 345 68 L 344 70 L 340 70 L 339 72 L 335 72 L 334 74 L 330 73 L 331 71 L 348 64 Z M 383 54 L 382 56 L 374 58 L 373 60 L 370 59 L 371 56 L 380 53 Z M 404 48 L 402 52 L 400 51 L 397 54 L 393 51 L 394 49 L 402 47 Z M 423 44 L 420 48 L 417 47 L 410 48 L 409 47 L 410 45 L 418 44 L 419 43 Z M 439 41 L 437 44 L 434 43 L 427 46 L 425 46 L 423 44 L 424 42 L 428 42 L 434 40 L 438 40 Z M 597 40 L 602 39 L 645 48 L 687 61 L 715 72 L 775 103 L 808 125 L 819 135 L 817 136 L 811 134 L 809 130 L 783 112 L 777 111 L 777 108 L 771 104 L 768 106 L 768 103 L 749 92 L 745 93 L 741 88 L 737 89 L 736 86 L 720 78 L 718 80 L 716 76 L 711 77 L 708 73 L 683 63 L 679 64 L 677 61 L 673 62 L 670 59 L 664 59 L 663 57 L 657 57 L 656 55 L 653 56 L 651 53 L 643 54 L 640 50 L 636 51 L 634 49 L 622 46 L 613 47 L 610 44 L 599 43 Z M 582 41 L 584 37 L 596 38 L 597 39 L 595 43 L 591 41 L 590 42 L 587 41 L 583 42 Z M 468 37 L 465 40 L 461 39 L 460 41 L 458 40 L 457 42 L 455 40 L 453 40 L 452 42 L 449 41 L 447 43 L 445 42 L 441 43 L 439 41 L 440 39 L 459 37 L 460 36 L 467 36 Z M 538 34 L 539 33 L 565 34 L 566 35 L 582 36 L 583 38 L 580 41 L 575 39 L 573 41 L 570 38 L 568 40 L 566 40 L 565 38 L 560 37 L 559 39 L 556 39 L 555 37 L 548 36 L 546 38 L 544 36 L 539 36 Z M 504 34 L 503 37 L 496 36 L 495 38 L 492 37 L 484 37 L 482 39 L 479 37 L 476 39 L 473 38 L 469 39 L 468 38 L 469 35 L 476 35 L 477 34 L 488 34 L 489 33 L 503 33 Z M 505 34 L 508 32 L 531 32 L 532 33 L 535 32 L 537 35 L 536 36 L 528 36 L 527 35 L 525 36 L 518 36 L 517 35 L 513 35 L 511 37 L 507 37 Z"/>
  </g>
</svg>